<svg width="167" height="22" viewBox="0 0 167 22" fill="none" xmlns="http://www.w3.org/2000/svg">
<path d="M10.2109 17H7.78906V12.5859C6.98698 12.8568 6.31771 13.0417 5.78125 13.1406C5.25 13.2396 4.74219 13.2891 4.25781 13.2891C3.16927 13.2891 2.32812 13.0286 1.73438 12.5078C1.14583 11.9818 0.851562 11.2448 0.851562 10.2969V5.57812H3.26562V9.60938C3.26562 10.1615 3.39323 10.5781 3.64844 10.8594C3.90365 11.1354 4.33594 11.2734 4.94531 11.2734C5.3724 11.2734 5.79688 11.2318 6.21875 11.1484C6.64583 11.0599 7.16927 10.9089 7.78906 10.6953V5.57812H10.2109V17ZM15.2109 8.26562V11.7188C15.2109 12.0833 15.151 12.974 15.0312 14.3906L19.0625 8.26562H21.9297V17H19.625V13.5156C19.625 12.8958 19.6771 12.0208 19.7812 10.8906L15.7656 17H12.9062V8.26562H15.2109ZM31.6641 8.26562V10.0547H28.8047V17H26.4219V10.0547H23.5547V8.26562H31.6641ZM38.8438 17L38.3828 15.8125H38.3203C37.9193 16.3177 37.5052 16.6693 37.0781 16.8672C36.6562 17.0599 36.1042 17.1562 35.4219 17.1562C34.5833 17.1562 33.9219 16.9167 33.4375 16.4375C32.9583 15.9583 32.7188 15.276 32.7188 14.3906C32.7188 13.4635 33.0417 12.7812 33.6875 12.3438C34.3385 11.901 35.3177 11.6562 36.625 11.6094L38.1406 11.5625V11.1797C38.1406 10.2943 37.6875 9.85156 36.7812 9.85156C36.0833 9.85156 35.263 10.0625 34.3203 10.4844L33.5312 8.875C34.5365 8.34896 35.651 8.08594 36.875 8.08594C38.0469 8.08594 38.9453 8.34115 39.5703 8.85156C40.1953 9.36198 40.5078 10.138 40.5078 11.1797V17H38.8438ZM38.1406 12.9531L37.2188 12.9844C36.526 13.0052 36.0104 13.1302 35.6719 13.3594C35.3333 13.5885 35.1641 13.9375 35.1641 14.4062C35.1641 15.0781 35.5495 15.4141 36.3203 15.4141C36.8724 15.4141 37.3125 15.2552 37.6406 14.9375C37.974 14.6198 38.1406 14.1979 38.1406 13.6719V12.9531ZM50.1953 8.26562V10.0547H47.3359V17H44.9531V10.0547H42.0859V8.26562H50.1953ZM54.2109 11.6406H55.8906C57.2344 11.6406 58.2292 11.8542 58.875 12.2812C59.5208 12.7083 59.8438 13.3542 59.8438 14.2188C59.8438 16.0729 58.5573 17 55.9844 17H51.8281V8.26562H54.2109V11.6406ZM57.4609 14.25C57.4609 13.9115 57.3255 13.6667 57.0547 13.5156C56.7839 13.3646 56.3802 13.2891 55.8438 13.2891H54.2109V15.3516H55.875C56.9323 15.3516 57.4609 14.9844 57.4609 14.25ZM71.2812 15.2578V10.0547H69.4922C69.362 11.0234 69.1823 11.9427 68.9531 12.8125C68.7292 13.6823 68.4167 14.4974 68.0156 15.2578H71.2812ZM74.9453 20.1328H72.8047V17H66.9297V20.1328H64.7891V15.2578H65.5234C66.0234 14.4818 66.4427 13.5026 66.7812 12.3203C67.1198 11.138 67.3568 9.78646 67.4922 8.26562H73.6641V15.2578H74.9453V20.1328ZM81.9844 17L81.5234 15.8125H81.4609C81.0599 16.3177 80.6458 16.6693 80.2188 16.8672C79.7969 17.0599 79.2448 17.1562 78.5625 17.1562C77.724 17.1562 77.0625 16.9167 76.5781 16.4375C76.099 15.9583 75.8594 15.276 75.8594 14.3906C75.8594 13.4635 76.1823 12.7812 76.8281 12.3438C77.4792 11.901 78.4583 11.6562 79.7656 11.6094L81.2812 11.5625V11.1797C81.2812 10.2943 80.8281 9.85156 79.9219 9.85156C79.224 9.85156 78.4036 10.0625 77.4609 10.4844L76.6719 8.875C77.6771 8.34896 78.7917 8.08594 80.0156 8.08594C81.1875 8.08594 82.0859 8.34115 82.7109 8.85156C83.3359 9.36198 83.6484 10.138 83.6484 11.1797V17H81.9844ZM81.2812 12.9531L80.3594 12.9844C79.6667 13.0052 79.151 13.1302 78.8125 13.3594C78.474 13.5885 78.3047 13.9375 78.3047 14.4062C78.3047 15.0781 78.6901 15.4141 79.4609 15.4141C80.013 15.4141 80.4531 15.2552 80.7812 14.9375C81.1146 14.6198 81.2812 14.1979 81.2812 13.6719V12.9531ZM93.9297 17H91.5469V10.0547H89.3516C89.1849 12.0078 88.9818 13.4661 88.7422 14.4297C88.5026 15.388 88.1823 16.0833 87.7812 16.5156C87.3854 16.9427 86.8646 17.1562 86.2188 17.1562C85.6667 17.1562 85.2135 17.0729 84.8594 16.9062V15C85.1146 15.1042 85.3698 15.1562 85.625 15.1562C85.9219 15.1562 86.1693 14.9427 86.3672 14.5156C86.5703 14.0885 86.75 13.3776 86.9062 12.3828C87.0677 11.3828 87.2057 10.0104 87.3203 8.26562H93.9297V17ZM100.055 9.79688C99.5495 9.79688 99.1536 9.95833 98.8672 10.2812C98.5807 10.599 98.4167 11.0521 98.375 11.6406H101.719C101.708 11.0521 101.555 10.599 101.258 10.2812C100.961 9.95833 100.56 9.79688 100.055 9.79688ZM100.391 17.1562C98.9844 17.1562 97.8854 16.7682 97.0938 15.9922C96.3021 15.2161 95.9062 14.1172 95.9062 12.6953C95.9062 11.2318 96.2708 10.1016 97 9.30469C97.7344 8.5026 98.7474 8.10156 100.039 8.10156C101.273 8.10156 102.234 8.45312 102.922 9.15625C103.609 9.85938 103.953 10.8307 103.953 12.0703V13.2266H98.3203C98.3464 13.9036 98.5469 14.4323 98.9219 14.8125C99.2969 15.1927 99.8229 15.3828 100.5 15.3828C101.026 15.3828 101.523 15.3281 101.992 15.2188C102.461 15.1094 102.951 14.9349 103.461 14.6953V16.5391C103.044 16.7474 102.599 16.901 102.125 17C101.651 17.1042 101.073 17.1562 100.391 17.1562ZM109.508 9.79688C109.003 9.79688 108.607 9.95833 108.32 10.2812C108.034 10.599 107.87 11.0521 107.828 11.6406H111.172C111.161 11.0521 111.008 10.599 110.711 10.2812C110.414 9.95833 110.013 9.79688 109.508 9.79688ZM109.844 17.1562C108.438 17.1562 107.339 16.7682 106.547 15.9922C105.755 15.2161 105.359 14.1172 105.359 12.6953C105.359 11.2318 105.724 10.1016 106.453 9.30469C107.188 8.5026 108.201 8.10156 109.492 8.10156C110.727 8.10156 111.688 8.45312 112.375 9.15625C113.062 9.85938 113.406 10.8307 113.406 12.0703V13.2266H107.773C107.799 13.9036 108 14.4323 108.375 14.8125C108.75 15.1927 109.276 15.3828 109.953 15.3828C110.479 15.3828 110.977 15.3281 111.445 15.2188C111.914 15.1094 112.404 14.9349 112.914 14.6953V16.5391C112.497 16.7474 112.052 16.901 111.578 17C111.104 17.1042 110.526 17.1562 109.844 17.1562Z" fill="#0B1919"/>
<path d="M166.707 11.7071C167.098 11.3166 167.098 10.6834 166.707 10.2929L160.343 3.92893C159.953 3.53841 159.319 3.53841 158.929 3.92893C158.538 4.31946 158.538 4.95262 158.929 5.34315L164.586 11L158.929 16.6569C158.538 17.0474 158.538 17.6805 158.929 18.0711C159.319 18.4616 159.953 18.4616 160.343 18.0711L166.707 11.7071ZM123 12L166 12V10L123 10V12Z" fill="#0B1919"/>
</svg>
